HIERARCHY
ROOT Hips
{
 OFFSET 0.000000 0.000000 0.000000
 CHANNELS 6 Xposition Yposition Zposition Yrotation Xrotation Zrotation
 JOINT Chest
 {
  OFFSET 0.000000 9.585900 0.002600
  CHANNELS 3 Yrotation Xrotation Zrotation
  JOINT Chest2
  {
   OFFSET 0.000000 9.601200 -0.005300
   CHANNELS 3 Yrotation Xrotation Zrotation
   JOINT Chest3
   {
    OFFSET 0.000000 9.561800 0.000000
    CHANNELS 3 Yrotation Xrotation Zrotation
    JOINT Chest4
    {
     OFFSET 0.000000 9.552100 0.000000
     CHANNELS 3 Yrotation Xrotation Zrotation
     JOINT Neck
     {
      OFFSET 0.000000 14.453000 0.000000
      CHANNELS 3 Yrotation Xrotation Zrotation
      JOINT Head
      {
       OFFSET 0.000000 8.936500 -0.011300
       CHANNELS 3 Yrotation Xrotation Zrotation
       End Site
       {
        OFFSET 0.000000 17.073600 -0.006000
       }
      }
     }
     JOINT RightCollar
     {
      OFFSET -2.921100 9.558500 0.000000
      CHANNELS 3 Yrotation Xrotation Zrotation
      JOINT RightShoulder
      {
       OFFSET -13.519700 0.000000 0.000000
       CHANNELS 3 Yrotation Xrotation Zrotation
       JOINT RightElbow
       {
        OFFSET 0.000000 -29.696600 0.000000
        CHANNELS 3 Yrotation Xrotation Zrotation
        JOINT RightWrist
        {
         OFFSET 0.000000 -24.004700 0.000000
         CHANNELS 3 Yrotation Xrotation Zrotation
         End Site
         {
          OFFSET 0.000000 -17.728500 0.000000
         }
        }
       }
      }
     }
     JOINT LeftCollar
     {
      OFFSET 2.921100 9.558500 0.000000
      CHANNELS 3 Yrotation Xrotation Zrotation
      JOINT LeftShoulder
      {
       OFFSET 13.519700 0.000000 0.000000
       CHANNELS 3 Yrotation Xrotation Zrotation
       JOINT LeftElbow
       {
        OFFSET 0.000000 -29.696600 0.000000
        CHANNELS 3 Yrotation Xrotation Zrotation
        JOINT LeftWrist
        {
         OFFSET 0.000000 -24.004700 0.000000
         CHANNELS 3 Yrotation Xrotation Zrotation
         End Site
         {
          OFFSET 0.000000 -17.728500 0.000000
         }
        }
       }
      }
     }
    }
   }
  }
 }
 JOINT RightHip
 {
  OFFSET -7.771700 -0.012900 -0.001300
  CHANNELS 3 Yrotation Xrotation Zrotation
  JOINT RightKnee
  {
   OFFSET 0.000000 -40.869800 0.001200
   CHANNELS 3 Yrotation Xrotation Zrotation
   JOINT RightAnkle
   {
    OFFSET 0.000000 -39.717900 0.002100
    CHANNELS 3 Yrotation Xrotation Zrotation
    JOINT RightToe
    {
     OFFSET 0.000000 -4.965400 11.033500
     CHANNELS 3 Yrotation Xrotation Zrotation
     End Site
     {
      OFFSET 0.000000 -1.423100 5.872300
     }
    }
   }
  }
 }
 JOINT LeftHip
 {
  OFFSET 7.771700 -0.012900 -0.001300
  CHANNELS 3 Yrotation Xrotation Zrotation
  JOINT LeftKnee
  {
   OFFSET 0.000000 -40.869800 0.001200
   CHANNELS 3 Yrotation Xrotation Zrotation
   JOINT LeftAnkle
   {
    OFFSET 0.000000 -39.717900 0.002100
    CHANNELS 3 Yrotation Xrotation Zrotation
    JOINT LeftToe
    {
     OFFSET 0.000000 -4.965400 11.033500
     CHANNELS 3 Yrotation Xrotation Zrotation
     End Site
     {
      OFFSET 0.000000 -1.423100 5.872300
     }
    }
   }
  }
 }
}
MOTION
Frames: 16
Frame Time: 0.008333
-9.348272 58.258548 38.509444 169.175037 -42.755592 -1.162979 2.777533 24.375607 2.478052 0.243515 3.715255 0.120152 0.536831 5.925643 0.297833 1.790145 20.173702 1.125586 -0.000196 10.383695 -1.717182 0.747118 -16.473462 -3.329030 9.104711 0.792808 0.655954 47.328642 -45.880381 -31.277144 60.483787 -66.935734 -38.394870 -1.106385 -7.856808 -30.335608 -7.612292 -1.589321 -2.729465 -37.797557 -24.041270 10.130527 -68.800969 -57.964534 33.853090 -24.579798 -3.340986 25.394359 15.414066 -30.622010 2.455899 -6.196123 68.007401 0.345776 1.605990 7.478084 2.084321 -0.031587 0.119333 -0.049787 -9.942557 -31.657621 2.577682 27.910126 68.892334 23.613546 -21.039671 8.801225 -0.920894 0.084644 -0.068485 0.059415
-9.325745 58.289941 38.457419 169.198430 -42.804767 -1.023507 2.716808 24.418209 2.341404 0.300886 3.688825 0.171302 0.479946 5.931607 0.273052 1.769608 20.177076 1.120124 -0.003540 10.423566 -1.748610 0.829415 -16.392308 -3.392594 9.188731 0.792394 0.578852 47.786495 -45.894350 -31.830909 64.408684 -67.130854 -41.656792 -0.572352 -8.132631 -31.650027 -7.504298 -1.593105 -2.790050 -37.995224 -23.961806 10.521960 -69.352131 -57.898726 33.272071 -24.822703 -3.363620 25.356168 15.673934 -30.542357 2.268650 -6.355365 68.091157 0.296422 1.636846 7.389520 2.127708 -0.022927 0.104548 -0.045693 -10.136899 -31.596659 2.417457 28.346839 68.869060 23.911053 -20.902078 8.816459 -0.894389 -0.056536 -0.131658 -0.010662
-9.296480 58.309730 38.412522 169.254180 -42.820955 -0.973366 2.653976 24.416883 2.276995 0.311947 3.667307 0.198399 0.469191 5.939378 0.271724 1.723414 20.169204 1.107884 0.013638 10.469326 -1.784568 0.923239 -16.294675 -3.453567 9.293115 0.831398 0.506871 47.810800 -46.013462 -32.105340 67.933881 -67.425384 -44.268843 -0.154714 -8.304110 -32.667560 -7.367864 -1.568714 -2.868959 -37.963728 -23.931876 10.866349 -69.429393 -57.890086 32.077108 -25.160011 -3.348302 25.235086 15.793511 -30.515278 2.204274 -6.697835 68.164919 0.000154 1.702978 7.318385 2.172796 -0.022376 0.090244 -0.044136 -10.380938 -31.612133 2.295797 29.141235 68.836086 24.599821 -20.761405 8.916239 -0.848794 -0.262604 -0.276173 -0.105213
-9.268416 58.314256 38.375968 169.325188 -42.793411 -0.966361 2.652327 24.345636 2.350284 0.240997 3.701442 0.108480 0.495794 5.943426 0.303463 1.699901 20.174034 1.100219 0.077709 10.519678 -1.792152 0.942350 -16.232073 -3.508373 9.355704 0.852148 0.446639 47.493020 -46.195568 -32.156799 71.080119 -67.866086 -46.353867 0.146292 -8.422382 -33.356955 -7.267557 -1.572788 -2.939846 -37.772344 -23.935216 11.165683 -68.807184 -57.906975 30.161687 -25.501698 -3.240179 24.987083 15.811033 -30.554127 2.206411 -7.127095 68.244987 -0.449764 1.784147 7.264820 2.218818 -0.005177 0.064549 -0.037110 -10.560502 -31.709631 2.160067 30.069479 68.801138 25.511530 -20.652342 9.064070 -0.799835 -0.484243 -0.597857 -0.391911
-9.249374 58.302684 38.348101 169.406433 -42.715113 -0.958633 2.614349 24.295047 2.340107 0.223498 3.664528 0.116003 0.515089 5.992016 0.294051 1.710408 20.182051 1.107715 0.081312 10.546051 -1.809961 0.966344 -16.185532 -3.531814 9.353831 0.848025 0.397259 46.924267 -46.395097 -32.034247 73.903918 -68.418660 -48.069752 0.312764 -8.537370 -33.714216 -7.225568 -1.613500 -2.998112 -37.494694 -23.950613 11.423389 -67.387062 -57.899393 27.640763 -25.871133 -3.043470 24.697800 15.755593 -30.654646 2.210261 -7.557302 68.339680 -0.968719 1.892048 7.204142 2.274031 0.009961 0.044589 -0.028040 -10.621294 -31.886418 1.975101 30.946580 68.772816 26.471166 -20.618877 9.200386 -0.779386 -0.652873 -1.145808 -0.988713
-9.225470 58.280854 38.328435 169.465723 -42.617245 -1.010835 2.639204 24.257933 2.406082 0.217242 3.631960 0.127308 0.535814 6.041467 0.282554 1.742866 20.194600 1.111763 0.075960 10.557363 -1.809400 0.955376 -16.164863 -3.527988 9.296337 0.811554 0.374108 46.178104 -46.572194 -31.780757 76.438233 -69.009311 -49.517988 0.385976 -8.662215 -33.795521 -7.234066 -1.690800 -3.024205 -37.188539 -23.953620 11.636371 -65.451227 -57.839549 24.991795 -26.207312 -2.890308 24.688794 15.605256 -30.786515 2.319344 -7.969934 68.405602 -1.520763 2.024202 7.140549 2.326455 0.006321 0.056742 -0.023769 -10.616951 -32.079423 1.860398 31.665102 68.758490 27.336651 -20.578506 9.344935 -0.749373 -0.806895 -1.756602 -1.663925
-9.213116 58.254358 38.311555 169.545583 -42.518203 -1.048137 2.647060 24.251262 2.431370 0.275452 3.692762 0.150079 0.503170 5.998606 0.263058 1.800285 20.206672 1.120254 0.056310 10.559277 -1.796317 0.911525 -16.162283 -3.493947 9.184031 0.755174 0.373936 45.330379 -46.692948 -31.443435 78.721931 -69.567767 -50.777468 0.435553 -8.772788 -33.684148 -7.294409 -1.787799 -3.024029 -36.886929 -23.923709 11.800335 -63.341999 -57.782026 22.656695 -26.394300 -3.029476 25.221282 15.398190 -30.917443 2.414504 -8.324430 68.484129 -2.044815 2.051025 7.087587 2.353691 0.005828 0.055262 -0.018752 -10.563721 -32.270662 1.722776 32.176039 68.758465 28.013703 -20.610621 9.438473 -0.760617 -0.860725 -2.223114 -2.177896
-9.209230 58.228638 38.296803 169.617626 -42.427940 -1.064804 2.665033 24.269217 2.430488 0.310642 3.725816 0.155269 0.504496 5.982858 0.259483 1.877611 20.217099 1.130784 0.025128 10.556635 -1.769835 0.839708 -16.168671 -3.429122 9.019867 0.691010 0.402781 44.475457 -46.720570 -31.078617 80.775592 -70.030608 -51.915507 0.518007 -8.874579 -33.453492 -7.404589 -1.882161 -2.998771 -36.597206 -23.851146 11.914505 -61.297090 -57.864146 20.816602 -26.460770 -3.554762 26.123235 15.150615 -31.031508 2.521454 -8.656901 68.557977 -2.567828 1.941751 7.037708 2.351076 -0.006054 0.057044 -0.016885 -10.474945 -32.430420 1.587382 32.450721 68.761250 28.448808 -20.676233 9.488728 -0.788916 -0.855172 -2.562377 -2.573959
-9.222540 58.197793 38.293386 169.613032 -42.258681 -0.966236 2.723448 24.207872 2.350627 0.326544 3.732625 0.155173 0.530036 5.992967 0.259863 1.964672 20.226521 1.142199 -0.014066 10.553326 -1.732030 0.747322 -16.176786 -3.338804 8.810117 0.631944 0.461802 43.705980 -46.622812 -30.750008 82.576662 -70.347960 -52.971694 0.683086 -8.988330 -33.171198 -7.556128 -1.954660 -2.954187 -36.312341 -23.735865 11.979852 -59.624508 -58.127839 19.611934 -26.483773 -4.292037 27.008488 14.941512 -31.216952 2.548745 -8.968854 68.636017 -3.129055 1.861651 6.982005 2.358357 -0.015611 0.082331 -0.017745 -10.273140 -32.644366 1.405438 32.498754 68.751610 28.658434 -20.797774 9.436090 -0.857158 -0.759518 -2.725259 -2.855598
-9.231538 58.183773 38.284512 169.636176 -42.172755 -0.921600 2.797303 24.214498 2.310643 0.342575 3.739115 0.155090 0.555821 6.002622 0.260236 2.052489 20.235053 1.153607 -0.057651 10.551198 -1.685162 0.642167 -16.183106 -3.228812 8.570346 0.589519 0.547254 43.080156 -46.387968 -30.501289 84.062675 -70.500635 -53.927943 0.976355 -9.113004 -32.872360 -7.732322 -1.993897 -2.895087 -36.012560 -23.586960 12.000335 -58.651408 -58.460433 19.221830 -26.491852 -5.012260 27.728894 14.625118 -31.292602 2.671006 -9.186187 68.671149 -3.655741 1.857319 6.929732 2.378804 -0.023484 0.109567 -0.016664 -10.057125 -32.728631 1.235421 32.376342 68.715369 28.717821 -20.874448 9.368268 -0.914135 -0.690874 -2.816732 -3.072065
-9.248307 58.183790 38.272541 169.684457 -42.129720 -0.849512 2.846920 24.247436 2.223633 0.357216 3.745639 0.154906 0.579278 6.012325 0.260406 2.131925 20.243968 1.163071 -0.102110 10.549308 -1.632328 0.523169 -16.207864 -3.116768 8.319126 0.570485 0.649933 42.602282 -46.028022 -30.335545 85.210582 -70.481728 -54.746335 1.404341 -9.226704 -32.604474 -7.912418 -1.997500 -2.826598 -35.668747 -23.421825 11.982496 -58.533434 -58.728049 19.694817 -26.458960 -5.635381 28.324106 14.300781 -31.295296 2.745521 -9.110841 68.700795 -3.921208 1.854850 6.870993 2.412260 -0.020328 0.133352 -0.012321 -9.777111 -32.742524 0.989377 32.125856 68.651603 28.679279 -21.019538 9.240886 -1.000229 -0.548270 -2.807380 -3.218968
-9.262457 58.197181 38.260558 169.722694 -42.119091 -0.780429 2.912418 24.291703 2.150596 0.368653 3.753677 0.154672 0.597624 6.024295 0.260448 2.192764 20.257100 1.169727 -0.142112 10.544638 -1.579328 0.395812 -16.270291 -3.027529 8.073971 0.576604 0.752051 42.230263 -45.579367 -30.218972 86.035175 -70.262657 -55.396934 1.911357 -9.309405 -32.425373 -8.070466 -1.972085 -2.757132 -35.255908 -23.261920 11.934101 -59.167315 -58.855982 20.857962 -26.347279 -6.192152 28.811081 14.015888 -31.254240 2.856960 -9.191876 68.696427 -4.343678 1.882805 6.826581 2.479129 -0.061102 0.147862 -0.008931 -9.459770 -32.697793 0.738417 31.798116 68.569320 28.579417 -21.153022 9.108626 -1.079954 -0.414640 -2.628983 -3.135758
-9.271723 58.220039 38.252151 169.744662 -42.114280 -0.719972 2.929613 24.310775 2.084146 0.426089 3.777833 0.146206 0.609411 6.040792 0.260812 2.230191 20.277861 1.174409 -0.172110 10.534625 -1.532577 0.325050 -16.272108 -2.927310 7.851420 0.605252 0.836426 41.898289 -45.087690 -30.097444 86.581273 -69.832361 -55.852338 2.428195 -9.349592 -32.344391 -8.182538 -1.927025 -2.695746 -34.763308 -23.127918 11.868117 -60.253539 -58.847946 22.385734 -26.153157 -6.692792 29.208814 13.807919 -31.202487 2.971239 -9.194058 68.665973 -4.637932 1.829107 6.802230 2.540026 -0.043232 0.157168 -0.003865 -9.141414 -32.630670 0.510290 31.447356 68.476743 28.450762 -21.236364 8.984728 -1.155073 -0.333549 -2.197316 -2.672940
-9.272962 58.253364 38.244347 169.822199 -42.141929 -0.729013 2.982223 24.364127 2.072088 0.399486 3.783371 0.150902 0.615401 6.062566 0.261962 2.247212 20.307054 1.178912 -0.189900 10.518706 -1.495591 0.297182 -16.260167 -2.814920 7.663535 0.653542 0.897040 41.539789 -44.586014 -29.923599 86.887825 -69.226124 -56.059264 2.906259 -9.357097 -32.332992 -8.238918 -1.867453 -2.647842 -34.200536 -23.030786 11.803464 -61.474710 -58.766494 23.960268 -25.904131 -7.120163 29.560984 13.621317 -31.107204 3.094724 -9.122958 68.608788 -4.792952 1.752761 6.789073 2.592904 -0.013747 0.161887 0.006225 -8.910744 -32.529529 0.326377 31.114605 68.387848 28.319188 -21.281301 8.918315 -1.185867 -0.271285 -1.750405 -2.144500
-9.272427 58.292330 38.238246 169.884041 -42.184450 -0.726770 3.001725 24.416550 2.045049 0.381059 3.795897 0.156713 0.617089 6.087984 0.263962 2.248944 20.342074 1.184166 -0.199347 10.484035 -1.471616 0.279328 -16.276425 -2.745406 7.512367 0.720352 0.936067 41.107235 -44.092242 -29.672423 86.866761 -68.486181 -55.895282 3.323540 -9.361967 -32.365920 -8.244093 -1.797270 -2.613381 -33.596502 -22.966671 11.757576 -62.624033 -58.664834 25.390394 -25.638387 -7.470343 29.920625 13.511175 -30.994310 3.190884 -9.039673 68.540874 -4.892310 1.694095 6.783111 2.659013 -0.006548 0.163302 0.014244 -8.712891 -32.421863 0.155245 30.840146 68.316882 28.214026 -21.301650 8.854244 -1.214271 -0.229951 -1.396366 -1.718808
-9.269237 58.331052 38.237163 169.983635 -42.216737 -0.764883 2.947405 24.451459 2.019703 0.379680 3.807881 0.159546 0.617749 6.117366 0.265297 2.240998 20.340132 1.188985 -0.202918 10.458746 -1.463534 0.274863 -16.282824 -2.695608 7.391722 0.841941 0.966148 40.589586 -43.607746 -29.342577 86.442225 -67.640479 -55.291301 3.672174 -9.374714 -32.444305 -8.209433 -1.681355 -2.594528 -32.986279 -22.926206 11.742679 -63.617635 -58.547305 26.615222 -25.378707 -7.767143 30.334994 13.408913 -30.894459 3.285666 -8.978034 68.463938 -4.975812 1.620717 6.791504 2.727619 0.017927 0.156865 0.014833 -8.608585 -32.329690 0.023904 30.623209 68.236134 28.124182 -21.276115 8.834347 -1.245145 -0.257337 -1.136269 -1.371298
